<?xml version="1.0" encoding="UTF-8" standalone="no"?><svg xmlns="http://www.w3.org/2000/svg" xmlns:xlink="http://www.w3.org/1999/xlink" contentScriptType="application/ecmascript" contentStyleType="text/css" height="586px" preserveAspectRatio="none" style="width:618px;height:586px;" version="1.1" viewBox="0 0 618 586" width="618px" zoomAndPan="magnify"><defs><filter height="300%" id="f8wu3kjhdjgwn" width="300%" x="-1" y="-1"><feGaussianBlur result="blurOut" stdDeviation="2.0"/><feColorMatrix in="blurOut" result="blurOut2" type="matrix" values="0 0 0 0 0 0 0 0 0 0 0 0 0 0 0 0 0 0 .4 0"/><feOffset dx="4.0" dy="4.0" in="blurOut2" result="blurOut3"/><feBlend in="SourceGraphic" in2="blurOut3" mode="normal"/></filter></defs><g><!--MD5=[f483d6e5de34a60207b28a5563be5e8b]
class Collaborator--><rect codeLine="10" fill="#FEFECE" filter="url(#f8wu3kjhdjgwn)" height="40" id="Collaborator" style="stroke:#A80036;stroke-width:1.5;" width="100" x="236" y="270"/><ellipse cx="251" cy="286" fill="#ADD1B2" rx="11" ry="11" style="stroke:#A80036;stroke-width:1.0;"/><path d="M253,282.5 Q253.2031,282 253.4375,281.75 Q253.6719,281.5 253.9375,281.5 Q254.4063,281.5 254.7031,281.7813 Q255,282.0625 255,282.7188 L255,284.2813 Q255,284.9375 254.7188,285.2188 Q254.4375,285.5 254,285.5 Q253.6094,285.5 253.3594,285.3281 Q253.1094,285.1563 253,284.7031 Q252.9531,284.3906 252.7813,284.2188 Q252.4688,283.8906 251.9063,283.7031 Q251.3438,283.5 250.7813,283.5 Q250.0781,283.5 249.4844,283.7813 Q248.9063,284.0625 248.4531,284.6875 Q248,285.3125 248,286.1719 L248,287.0938 Q248,288.125 248.8438,288.8125 Q249.6875,289.5 251.1875,289.5 Q252.0781,289.5 252.7031,289.2969 Q253.0625,289.1875 253.4688,288.8281 Q253.7344,288.625 253.875,288.5625 Q254.0156,288.5 254.1875,288.5 Q254.5156,288.5 254.75,288.7656 Q255,289.0156 255,289.375 Q255,289.7188 254.6563,290.125 Q254.1563,290.7188 253.3594,291.0469 Q252.3125,291.5 251.0313,291.5 Q249.5313,291.5 248.3281,290.9063 Q247.3594,290.4375 246.6719,289.4219 Q246,288.4063 246,287.2031 L246,286.1094 Q246,284.8594 246.5938,283.7656 Q247.2031,282.6719 248.25,282.0938 Q249.3125,281.5 250.5,281.5 Q251.2188,281.5 251.8438,281.75 Q252.4688,282 253,282.5 Z " fill="#000000"/><text fill="#000000" font-family="sans-serif" font-size="12" lengthAdjust="spacing" textLength="68" x="265" y="290.9102">Collaborator</text><line style="stroke:#A80036;stroke-width:1.5;" x1="237" x2="335" y1="302" y2="302"/><!--MD5=[3fd616f346a44cd59a91eb10b19e157c]
class User--><rect codeLine="13" fill="#FEFECE" filter="url(#f8wu3kjhdjgwn)" height="81.5078" id="User" style="stroke:#A80036;stroke-width:1.5;" width="97" x="501" y="270"/><ellipse cx="533.1" cy="286" fill="#ADD1B2" rx="11" ry="11" style="stroke:#A80036;stroke-width:1.0;"/><path d="M535.1,282.5 Q535.3031,282 535.5375,281.75 Q535.7719,281.5 536.0375,281.5 Q536.5063,281.5 536.8031,281.7813 Q537.1,282.0625 537.1,282.7188 L537.1,284.2813 Q537.1,284.9375 536.8188,285.2188 Q536.5375,285.5 536.1,285.5 Q535.7094,285.5 535.4594,285.3281 Q535.2094,285.1563 535.1,284.7031 Q535.0531,284.3906 534.8813,284.2188 Q534.5688,283.8906 534.0063,283.7031 Q533.4438,283.5 532.8813,283.5 Q532.1781,283.5 531.5844,283.7813 Q531.0063,284.0625 530.5531,284.6875 Q530.1,285.3125 530.1,286.1719 L530.1,287.0938 Q530.1,288.125 530.9438,288.8125 Q531.7875,289.5 533.2875,289.5 Q534.1781,289.5 534.8031,289.2969 Q535.1625,289.1875 535.5688,288.8281 Q535.8344,288.625 535.975,288.5625 Q536.1156,288.5 536.2875,288.5 Q536.6156,288.5 536.85,288.7656 Q537.1,289.0156 537.1,289.375 Q537.1,289.7188 536.7563,290.125 Q536.2563,290.7188 535.4594,291.0469 Q534.4125,291.5 533.1313,291.5 Q531.6313,291.5 530.4281,290.9063 Q529.4594,290.4375 528.7719,289.4219 Q528.1,288.4063 528.1,287.2031 L528.1,286.1094 Q528.1,284.8594 528.6938,283.7656 Q529.3031,282.6719 530.35,282.0938 Q531.4125,281.5 532.6,281.5 Q533.3188,281.5 533.9438,281.75 Q534.5688,282 535.1,282.5 Z " fill="#000000"/><text fill="#000000" font-family="sans-serif" font-size="12" lengthAdjust="spacing" textLength="27" x="550.9" y="290.9102">User</text><line style="stroke:#A80036;stroke-width:1.5;" x1="502" x2="597" y1="302" y2="302"/><text fill="#000000" font-family="sans-serif" font-size="11" lengthAdjust="spacing" textLength="61" x="507" y="317.4189">-String name</text><text fill="#000000" font-family="sans-serif" font-size="11" lengthAdjust="spacing" textLength="59" x="507" y="331.2549">-String email</text><text fill="#000000" font-family="sans-serif" font-size="11" lengthAdjust="spacing" textLength="85" x="507" y="345.0908">-String password</text><!--MD5=[b34797a66dc35cbf1d65f7e3ca75530e]
class Task--><rect codeLine="19" fill="#FEFECE" filter="url(#f8wu3kjhdjgwn)" height="95.3438" id="Task" style="stroke:#A80036;stroke-width:1.5;" width="109" x="495" y="139.5"/><ellipse cx="532.5" cy="155.5" fill="#ADD1B2" rx="11" ry="11" style="stroke:#A80036;stroke-width:1.0;"/><path d="M534.5,152 Q534.7031,151.5 534.9375,151.25 Q535.1719,151 535.4375,151 Q535.9063,151 536.2031,151.2813 Q536.5,151.5625 536.5,152.2188 L536.5,153.7813 Q536.5,154.4375 536.2188,154.7188 Q535.9375,155 535.5,155 Q535.1094,155 534.8594,154.8281 Q534.6094,154.6563 534.5,154.2031 Q534.4531,153.8906 534.2813,153.7188 Q533.9688,153.3906 533.4063,153.2031 Q532.8438,153 532.2813,153 Q531.5781,153 530.9844,153.2813 Q530.4063,153.5625 529.9531,154.1875 Q529.5,154.8125 529.5,155.6719 L529.5,156.5938 Q529.5,157.625 530.3438,158.3125 Q531.1875,159 532.6875,159 Q533.5781,159 534.2031,158.7969 Q534.5625,158.6875 534.9688,158.3281 Q535.2344,158.125 535.375,158.0625 Q535.5156,158 535.6875,158 Q536.0156,158 536.25,158.2656 Q536.5,158.5156 536.5,158.875 Q536.5,159.2188 536.1563,159.625 Q535.6563,160.2188 534.8594,160.5469 Q533.8125,161 532.5313,161 Q531.0313,161 529.8281,160.4063 Q528.8594,159.9375 528.1719,158.9219 Q527.5,157.9063 527.5,156.7031 L527.5,155.6094 Q527.5,154.3594 528.0938,153.2656 Q528.7031,152.1719 529.75,151.5938 Q530.8125,151 532,151 Q532.7188,151 533.3438,151.25 Q533.9688,151.5 534.5,152 Z " fill="#000000"/><text fill="#000000" font-family="sans-serif" font-size="12" lengthAdjust="spacing" textLength="27" x="551.5" y="160.4102">Task</text><line style="stroke:#A80036;stroke-width:1.5;" x1="496" x2="603" y1="171.5" y2="171.5"/><text fill="#000000" font-family="sans-serif" font-size="11" lengthAdjust="spacing" textLength="88" x="501" y="186.9189">-String description</text><text fill="#000000" font-family="sans-serif" font-size="11" lengthAdjust="spacing" textLength="78" x="501" y="200.7549">-Enum taskState</text><text fill="#000000" font-family="sans-serif" font-size="11" lengthAdjust="spacing" textLength="97" x="501" y="214.5908">-Enum taskCategory</text><text fill="#000000" font-family="sans-serif" font-size="11" lengthAdjust="spacing" textLength="46" x="501" y="228.4268">-Date limit</text><!--MD5=[9de4f19eab90a199848c5893311179be]
class MechanographicNumber--><rect fill="#FEFECE" filter="url(#f8wu3kjhdjgwn)" height="40" id="MechanographicNumber" style="stroke:#A80036;stroke-width:1.5;" width="168" x="7" y="7"/><ellipse cx="22" cy="23" fill="#ADD1B2" rx="11" ry="11" style="stroke:#A80036;stroke-width:1.0;"/><path d="M24,19.5 Q24.2031,19 24.4375,18.75 Q24.6719,18.5 24.9375,18.5 Q25.4063,18.5 25.7031,18.7813 Q26,19.0625 26,19.7188 L26,21.2813 Q26,21.9375 25.7188,22.2188 Q25.4375,22.5 25,22.5 Q24.6094,22.5 24.3594,22.3281 Q24.1094,22.1563 24,21.7031 Q23.9531,21.3906 23.7813,21.2188 Q23.4688,20.8906 22.9063,20.7031 Q22.3438,20.5 21.7813,20.5 Q21.0781,20.5 20.4844,20.7813 Q19.9063,21.0625 19.4531,21.6875 Q19,22.3125 19,23.1719 L19,24.0938 Q19,25.125 19.8438,25.8125 Q20.6875,26.5 22.1875,26.5 Q23.0781,26.5 23.7031,26.2969 Q24.0625,26.1875 24.4688,25.8281 Q24.7344,25.625 24.875,25.5625 Q25.0156,25.5 25.1875,25.5 Q25.5156,25.5 25.75,25.7656 Q26,26.0156 26,26.375 Q26,26.7188 25.6563,27.125 Q25.1563,27.7188 24.3594,28.0469 Q23.3125,28.5 22.0313,28.5 Q20.5313,28.5 19.3281,27.9063 Q18.3594,27.4375 17.6719,26.4219 Q17,25.4063 17,24.2031 L17,23.1094 Q17,21.8594 17.5938,20.7656 Q18.2031,19.6719 19.25,19.0938 Q20.3125,18.5 21.5,18.5 Q22.2188,18.5 22.8438,18.75 Q23.4688,19 24,19.5 Z " fill="#000000"/><text fill="#000000" font-family="sans-serif" font-size="12" lengthAdjust="spacing" textLength="136" x="36" y="27.9102">MechanographicNumber</text><line style="stroke:#A80036;stroke-width:1.5;" x1="8" x2="174" y1="39" y2="39"/><!--MD5=[86d7e979422b2db1ed051554daceab30]
class FirstName--><rect fill="#FEFECE" filter="url(#f8wu3kjhdjgwn)" height="40" id="FirstName" style="stroke:#A80036;stroke-width:1.5;" width="90" x="46" y="82"/><ellipse cx="61" cy="98" fill="#ADD1B2" rx="11" ry="11" style="stroke:#A80036;stroke-width:1.0;"/><path d="M63,94.5 Q63.2031,94 63.4375,93.75 Q63.6719,93.5 63.9375,93.5 Q64.4063,93.5 64.7031,93.7813 Q65,94.0625 65,94.7188 L65,96.2813 Q65,96.9375 64.7188,97.2188 Q64.4375,97.5 64,97.5 Q63.6094,97.5 63.3594,97.3281 Q63.1094,97.1563 63,96.7031 Q62.9531,96.3906 62.7813,96.2188 Q62.4688,95.8906 61.9063,95.7031 Q61.3438,95.5 60.7813,95.5 Q60.0781,95.5 59.4844,95.7813 Q58.9063,96.0625 58.4531,96.6875 Q58,97.3125 58,98.1719 L58,99.0938 Q58,100.125 58.8438,100.8125 Q59.6875,101.5 61.1875,101.5 Q62.0781,101.5 62.7031,101.2969 Q63.0625,101.1875 63.4688,100.8281 Q63.7344,100.625 63.875,100.5625 Q64.0156,100.5 64.1875,100.5 Q64.5156,100.5 64.75,100.7656 Q65,101.0156 65,101.375 Q65,101.7188 64.6563,102.125 Q64.1563,102.7188 63.3594,103.0469 Q62.3125,103.5 61.0313,103.5 Q59.5313,103.5 58.3281,102.9063 Q57.3594,102.4375 56.6719,101.4219 Q56,100.4063 56,99.2031 L56,98.1094 Q56,96.8594 56.5938,95.7656 Q57.2031,94.6719 58.25,94.0938 Q59.3125,93.5 60.5,93.5 Q61.2188,93.5 61.8438,93.75 Q62.4688,94 63,94.5 Z " fill="#000000"/><text fill="#000000" font-family="sans-serif" font-size="12" lengthAdjust="spacing" textLength="58" x="75" y="102.9102">FirstName</text><line style="stroke:#A80036;stroke-width:1.5;" x1="47" x2="135" y1="114" y2="114"/><!--MD5=[e97897bc7b44f33e9142deaa7d28dc22]
class LastName--><rect fill="#FEFECE" filter="url(#f8wu3kjhdjgwn)" height="40" id="LastName" style="stroke:#A80036;stroke-width:1.5;" width="90" x="46" y="157"/><ellipse cx="61" cy="173" fill="#ADD1B2" rx="11" ry="11" style="stroke:#A80036;stroke-width:1.0;"/><path d="M63,169.5 Q63.2031,169 63.4375,168.75 Q63.6719,168.5 63.9375,168.5 Q64.4063,168.5 64.7031,168.7813 Q65,169.0625 65,169.7188 L65,171.2813 Q65,171.9375 64.7188,172.2188 Q64.4375,172.5 64,172.5 Q63.6094,172.5 63.3594,172.3281 Q63.1094,172.1563 63,171.7031 Q62.9531,171.3906 62.7813,171.2188 Q62.4688,170.8906 61.9063,170.7031 Q61.3438,170.5 60.7813,170.5 Q60.0781,170.5 59.4844,170.7813 Q58.9063,171.0625 58.4531,171.6875 Q58,172.3125 58,173.1719 L58,174.0938 Q58,175.125 58.8438,175.8125 Q59.6875,176.5 61.1875,176.5 Q62.0781,176.5 62.7031,176.2969 Q63.0625,176.1875 63.4688,175.8281 Q63.7344,175.625 63.875,175.5625 Q64.0156,175.5 64.1875,175.5 Q64.5156,175.5 64.75,175.7656 Q65,176.0156 65,176.375 Q65,176.7188 64.6563,177.125 Q64.1563,177.7188 63.3594,178.0469 Q62.3125,178.5 61.0313,178.5 Q59.5313,178.5 58.3281,177.9063 Q57.3594,177.4375 56.6719,176.4219 Q56,175.4063 56,174.2031 L56,173.1094 Q56,171.8594 56.5938,170.7656 Q57.2031,169.6719 58.25,169.0938 Q59.3125,168.5 60.5,168.5 Q61.2188,168.5 61.8438,168.75 Q62.4688,169 63,169.5 Z " fill="#000000"/><text fill="#000000" font-family="sans-serif" font-size="12" lengthAdjust="spacing" textLength="58" x="75" y="177.9102">LastName</text><line style="stroke:#A80036;stroke-width:1.5;" x1="47" x2="135" y1="189" y2="189"/><!--MD5=[1112bf2950c2acc30947c9ea6739cf64]
class Functions--><rect fill="#FEFECE" filter="url(#f8wu3kjhdjgwn)" height="40" id="Functions" style="stroke:#A80036;stroke-width:1.5;" width="86" x="48" y="232"/><ellipse cx="63" cy="248" fill="#ADD1B2" rx="11" ry="11" style="stroke:#A80036;stroke-width:1.0;"/><path d="M65,244.5 Q65.2031,244 65.4375,243.75 Q65.6719,243.5 65.9375,243.5 Q66.4063,243.5 66.7031,243.7813 Q67,244.0625 67,244.7188 L67,246.2813 Q67,246.9375 66.7188,247.2188 Q66.4375,247.5 66,247.5 Q65.6094,247.5 65.3594,247.3281 Q65.1094,247.1563 65,246.7031 Q64.9531,246.3906 64.7813,246.2188 Q64.4688,245.8906 63.9063,245.7031 Q63.3438,245.5 62.7813,245.5 Q62.0781,245.5 61.4844,245.7813 Q60.9063,246.0625 60.4531,246.6875 Q60,247.3125 60,248.1719 L60,249.0938 Q60,250.125 60.8438,250.8125 Q61.6875,251.5 63.1875,251.5 Q64.0781,251.5 64.7031,251.2969 Q65.0625,251.1875 65.4688,250.8281 Q65.7344,250.625 65.875,250.5625 Q66.0156,250.5 66.1875,250.5 Q66.5156,250.5 66.75,250.7656 Q67,251.0156 67,251.375 Q67,251.7188 66.6563,252.125 Q66.1563,252.7188 65.3594,253.0469 Q64.3125,253.5 63.0313,253.5 Q61.5313,253.5 60.3281,252.9063 Q59.3594,252.4375 58.6719,251.4219 Q58,250.4063 58,249.2031 L58,248.1094 Q58,246.8594 58.5938,245.7656 Q59.2031,244.6719 60.25,244.0938 Q61.3125,243.5 62.5,243.5 Q63.2188,243.5 63.8438,243.75 Q64.4688,244 65,244.5 Z " fill="#000000"/><text fill="#000000" font-family="sans-serif" font-size="12" lengthAdjust="spacing" textLength="54" x="77" y="252.9102">Functions</text><line style="stroke:#A80036;stroke-width:1.5;" x1="49" x2="133" y1="264" y2="264"/><!--MD5=[b5e265065262f4f9caf90311e5706eef]
class PhoneNumber--><rect fill="#FEFECE" filter="url(#f8wu3kjhdjgwn)" height="40" id="PhoneNumber" style="stroke:#A80036;stroke-width:1.5;" width="113" x="34.5" y="307"/><ellipse cx="49.5" cy="323" fill="#ADD1B2" rx="11" ry="11" style="stroke:#A80036;stroke-width:1.0;"/><path d="M51.5,319.5 Q51.7031,319 51.9375,318.75 Q52.1719,318.5 52.4375,318.5 Q52.9063,318.5 53.2031,318.7813 Q53.5,319.0625 53.5,319.7188 L53.5,321.2813 Q53.5,321.9375 53.2188,322.2188 Q52.9375,322.5 52.5,322.5 Q52.1094,322.5 51.8594,322.3281 Q51.6094,322.1563 51.5,321.7031 Q51.4531,321.3906 51.2813,321.2188 Q50.9688,320.8906 50.4063,320.7031 Q49.8438,320.5 49.2813,320.5 Q48.5781,320.5 47.9844,320.7813 Q47.4063,321.0625 46.9531,321.6875 Q46.5,322.3125 46.5,323.1719 L46.5,324.0938 Q46.5,325.125 47.3438,325.8125 Q48.1875,326.5 49.6875,326.5 Q50.5781,326.5 51.2031,326.2969 Q51.5625,326.1875 51.9688,325.8281 Q52.2344,325.625 52.375,325.5625 Q52.5156,325.5 52.6875,325.5 Q53.0156,325.5 53.25,325.7656 Q53.5,326.0156 53.5,326.375 Q53.5,326.7188 53.1563,327.125 Q52.6563,327.7188 51.8594,328.0469 Q50.8125,328.5 49.5313,328.5 Q48.0313,328.5 46.8281,327.9063 Q45.8594,327.4375 45.1719,326.4219 Q44.5,325.4063 44.5,324.2031 L44.5,323.1094 Q44.5,321.8594 45.0938,320.7656 Q45.7031,319.6719 46.75,319.0938 Q47.8125,318.5 49,318.5 Q49.7188,318.5 50.3438,318.75 Q50.9688,319 51.5,319.5 Z " fill="#000000"/><text fill="#000000" font-family="sans-serif" font-size="12" lengthAdjust="spacing" textLength="81" x="63.5" y="327.9102">PhoneNumber</text><line style="stroke:#A80036;stroke-width:1.5;" x1="35.5" x2="146.5" y1="339" y2="339"/><!--MD5=[86da862686644bb411a4712dd99fe650]
class BirhtDate--><rect fill="#FEFECE" filter="url(#f8wu3kjhdjgwn)" height="40" id="BirhtDate" style="stroke:#A80036;stroke-width:1.5;" width="83" x="49.5" y="382"/><ellipse cx="64.5" cy="398" fill="#ADD1B2" rx="11" ry="11" style="stroke:#A80036;stroke-width:1.0;"/><path d="M66.5,394.5 Q66.7031,394 66.9375,393.75 Q67.1719,393.5 67.4375,393.5 Q67.9063,393.5 68.2031,393.7813 Q68.5,394.0625 68.5,394.7188 L68.5,396.2813 Q68.5,396.9375 68.2188,397.2188 Q67.9375,397.5 67.5,397.5 Q67.1094,397.5 66.8594,397.3281 Q66.6094,397.1563 66.5,396.7031 Q66.4531,396.3906 66.2813,396.2188 Q65.9688,395.8906 65.4063,395.7031 Q64.8438,395.5 64.2813,395.5 Q63.5781,395.5 62.9844,395.7813 Q62.4063,396.0625 61.9531,396.6875 Q61.5,397.3125 61.5,398.1719 L61.5,399.0938 Q61.5,400.125 62.3438,400.8125 Q63.1875,401.5 64.6875,401.5 Q65.5781,401.5 66.2031,401.2969 Q66.5625,401.1875 66.9688,400.8281 Q67.2344,400.625 67.375,400.5625 Q67.5156,400.5 67.6875,400.5 Q68.0156,400.5 68.25,400.7656 Q68.5,401.0156 68.5,401.375 Q68.5,401.7188 68.1563,402.125 Q67.6563,402.7188 66.8594,403.0469 Q65.8125,403.5 64.5313,403.5 Q63.0313,403.5 61.8281,402.9063 Q60.8594,402.4375 60.1719,401.4219 Q59.5,400.4063 59.5,399.2031 L59.5,398.1094 Q59.5,396.8594 60.0938,395.7656 Q60.7031,394.6719 61.75,394.0938 Q62.8125,393.5 64,393.5 Q64.7188,393.5 65.3438,393.75 Q65.9688,394 66.5,394.5 Z " fill="#000000"/><text fill="#000000" font-family="sans-serif" font-size="12" lengthAdjust="spacing" textLength="51" x="78.5" y="402.9102">BirhtDate</text><line style="stroke:#A80036;stroke-width:1.5;" x1="50.5" x2="131.5" y1="414" y2="414"/><!--MD5=[78bec0fde86ad92ec1dc3fb343b83709]
class Email--><rect fill="#FEFECE" filter="url(#f8wu3kjhdjgwn)" height="40" id="Email" style="stroke:#A80036;stroke-width:1.5;" width="64" x="59" y="457"/><ellipse cx="74" cy="473" fill="#ADD1B2" rx="11" ry="11" style="stroke:#A80036;stroke-width:1.0;"/><path d="M76,469.5 Q76.2031,469 76.4375,468.75 Q76.6719,468.5 76.9375,468.5 Q77.4063,468.5 77.7031,468.7813 Q78,469.0625 78,469.7188 L78,471.2813 Q78,471.9375 77.7188,472.2188 Q77.4375,472.5 77,472.5 Q76.6094,472.5 76.3594,472.3281 Q76.1094,472.1563 76,471.7031 Q75.9531,471.3906 75.7813,471.2188 Q75.4688,470.8906 74.9063,470.7031 Q74.3438,470.5 73.7813,470.5 Q73.0781,470.5 72.4844,470.7813 Q71.9063,471.0625 71.4531,471.6875 Q71,472.3125 71,473.1719 L71,474.0938 Q71,475.125 71.8438,475.8125 Q72.6875,476.5 74.1875,476.5 Q75.0781,476.5 75.7031,476.2969 Q76.0625,476.1875 76.4688,475.8281 Q76.7344,475.625 76.875,475.5625 Q77.0156,475.5 77.1875,475.5 Q77.5156,475.5 77.75,475.7656 Q78,476.0156 78,476.375 Q78,476.7188 77.6563,477.125 Q77.1563,477.7188 76.3594,478.0469 Q75.3125,478.5 74.0313,478.5 Q72.5313,478.5 71.3281,477.9063 Q70.3594,477.4375 69.6719,476.4219 Q69,475.4063 69,474.2031 L69,473.1094 Q69,471.8594 69.5938,470.7656 Q70.2031,469.6719 71.25,469.0938 Q72.3125,468.5 73.5,468.5 Q74.2188,468.5 74.8438,468.75 Q75.4688,469 76,469.5 Z " fill="#000000"/><text fill="#000000" font-family="sans-serif" font-size="12" lengthAdjust="spacing" textLength="32" x="88" y="477.9102">Email</text><line style="stroke:#A80036;stroke-width:1.5;" x1="60" x2="122" y1="489" y2="489"/><!--MD5=[0f39e4cb6f03951afbf6d14bd2505654]
class Address--><rect fill="#FEFECE" filter="url(#f8wu3kjhdjgwn)" height="40" id="Address" style="stroke:#A80036;stroke-width:1.5;" width="78" x="52" y="532"/><ellipse cx="67" cy="548" fill="#ADD1B2" rx="11" ry="11" style="stroke:#A80036;stroke-width:1.0;"/><path d="M69,544.5 Q69.2031,544 69.4375,543.75 Q69.6719,543.5 69.9375,543.5 Q70.4063,543.5 70.7031,543.7813 Q71,544.0625 71,544.7188 L71,546.2813 Q71,546.9375 70.7188,547.2188 Q70.4375,547.5 70,547.5 Q69.6094,547.5 69.3594,547.3281 Q69.1094,547.1563 69,546.7031 Q68.9531,546.3906 68.7813,546.2188 Q68.4688,545.8906 67.9063,545.7031 Q67.3438,545.5 66.7813,545.5 Q66.0781,545.5 65.4844,545.7813 Q64.9063,546.0625 64.4531,546.6875 Q64,547.3125 64,548.1719 L64,549.0938 Q64,550.125 64.8438,550.8125 Q65.6875,551.5 67.1875,551.5 Q68.0781,551.5 68.7031,551.2969 Q69.0625,551.1875 69.4688,550.8281 Q69.7344,550.625 69.875,550.5625 Q70.0156,550.5 70.1875,550.5 Q70.5156,550.5 70.75,550.7656 Q71,551.0156 71,551.375 Q71,551.7188 70.6563,552.125 Q70.1563,552.7188 69.3594,553.0469 Q68.3125,553.5 67.0313,553.5 Q65.5313,553.5 64.3281,552.9063 Q63.3594,552.4375 62.6719,551.4219 Q62,550.4063 62,549.2031 L62,548.1094 Q62,546.8594 62.5938,545.7656 Q63.2031,544.6719 64.25,544.0938 Q65.3125,543.5 66.5,543.5 Q67.2188,543.5 67.8438,543.75 Q68.4688,544 69,544.5 Z " fill="#000000"/><text fill="#000000" font-family="sans-serif" font-size="12" lengthAdjust="spacing" textLength="46" x="81" y="552.9102">Address</text><line style="stroke:#A80036;stroke-width:1.5;" x1="53" x2="129" y1="564" y2="564"/><!--MD5=[ba580110b1777f63e0f1dfe3fcefdac0]
class Code--><rect fill="#FEFECE" filter="url(#f8wu3kjhdjgwn)" height="40" id="Code" style="stroke:#A80036;stroke-width:1.5;" width="62" x="255" y="99"/><ellipse cx="270" cy="115" fill="#ADD1B2" rx="11" ry="11" style="stroke:#A80036;stroke-width:1.0;"/><path d="M272,111.5 Q272.2031,111 272.4375,110.75 Q272.6719,110.5 272.9375,110.5 Q273.4063,110.5 273.7031,110.7813 Q274,111.0625 274,111.7188 L274,113.2813 Q274,113.9375 273.7188,114.2188 Q273.4375,114.5 273,114.5 Q272.6094,114.5 272.3594,114.3281 Q272.1094,114.1563 272,113.7031 Q271.9531,113.3906 271.7813,113.2188 Q271.4688,112.8906 270.9063,112.7031 Q270.3438,112.5 269.7813,112.5 Q269.0781,112.5 268.4844,112.7813 Q267.9063,113.0625 267.4531,113.6875 Q267,114.3125 267,115.1719 L267,116.0938 Q267,117.125 267.8438,117.8125 Q268.6875,118.5 270.1875,118.5 Q271.0781,118.5 271.7031,118.2969 Q272.0625,118.1875 272.4688,117.8281 Q272.7344,117.625 272.875,117.5625 Q273.0156,117.5 273.1875,117.5 Q273.5156,117.5 273.75,117.7656 Q274,118.0156 274,118.375 Q274,118.7188 273.6563,119.125 Q273.1563,119.7188 272.3594,120.0469 Q271.3125,120.5 270.0313,120.5 Q268.5313,120.5 267.3281,119.9063 Q266.3594,119.4375 265.6719,118.4219 Q265,117.4063 265,116.2031 L265,115.1094 Q265,113.8594 265.5938,112.7656 Q266.2031,111.6719 267.25,111.0938 Q268.3125,110.5 269.5,110.5 Q270.2188,110.5 270.8438,110.75 Q271.4688,111 272,111.5 Z " fill="#000000"/><text fill="#000000" font-family="sans-serif" font-size="12" lengthAdjust="spacing" textLength="30" x="284" y="119.9102">Code</text><line style="stroke:#A80036;stroke-width:1.5;" x1="256" x2="316" y1="131" y2="131"/><!--MD5=[d0d7b0900e371541ba11cbff692d2bc7]
class Script--><rect fill="#FEFECE" filter="url(#f8wu3kjhdjgwn)" height="40" id="Script" style="stroke:#A80036;stroke-width:1.5;" width="63" x="254.5" y="174"/><ellipse cx="269.5" cy="190" fill="#ADD1B2" rx="11" ry="11" style="stroke:#A80036;stroke-width:1.0;"/><path d="M271.5,186.5 Q271.7031,186 271.9375,185.75 Q272.1719,185.5 272.4375,185.5 Q272.9063,185.5 273.2031,185.7813 Q273.5,186.0625 273.5,186.7188 L273.5,188.2813 Q273.5,188.9375 273.2188,189.2188 Q272.9375,189.5 272.5,189.5 Q272.1094,189.5 271.8594,189.3281 Q271.6094,189.1563 271.5,188.7031 Q271.4531,188.3906 271.2813,188.2188 Q270.9688,187.8906 270.4063,187.7031 Q269.8438,187.5 269.2813,187.5 Q268.5781,187.5 267.9844,187.7813 Q267.4063,188.0625 266.9531,188.6875 Q266.5,189.3125 266.5,190.1719 L266.5,191.0938 Q266.5,192.125 267.3438,192.8125 Q268.1875,193.5 269.6875,193.5 Q270.5781,193.5 271.2031,193.2969 Q271.5625,193.1875 271.9688,192.8281 Q272.2344,192.625 272.375,192.5625 Q272.5156,192.5 272.6875,192.5 Q273.0156,192.5 273.25,192.7656 Q273.5,193.0156 273.5,193.375 Q273.5,193.7188 273.1563,194.125 Q272.6563,194.7188 271.8594,195.0469 Q270.8125,195.5 269.5313,195.5 Q268.0313,195.5 266.8281,194.9063 Q265.8594,194.4375 265.1719,193.4219 Q264.5,192.4063 264.5,191.2031 L264.5,190.1094 Q264.5,188.8594 265.0938,187.7656 Q265.7031,186.6719 266.75,186.0938 Q267.8125,185.5 269,185.5 Q269.7188,185.5 270.3438,185.75 Q270.9688,186 271.5,186.5 Z " fill="#000000"/><text fill="#000000" font-family="sans-serif" font-size="12" lengthAdjust="spacing" textLength="31" x="283.5" y="194.9102">Script</text><line style="stroke:#A80036;stroke-width:1.5;" x1="255.5" x2="316.5" y1="206" y2="206"/><!--MD5=[04ce0ecdab38a3951889ff50c232570f]
link Collaborator to User--><path codeLine="29" d="M336.21,298.26 C346.05,299.69 356.34,301.03 366,302 C411.61,306.58 463.88,308.85 500.75,309.97 " fill="none" id="Collaborator-User" style="stroke:#A80036;stroke-width:1.0;"/><polygon fill="#000000" points="393.4874,293.5307,384.6738,289.9571,384.2565,295.8201,393.4874,293.5307" style="stroke:#000000;stroke-width:1.0;"/><text fill="#000000" font-family="sans-serif" font-size="13" lengthAdjust="spacing" textLength="49" x="397.5" y="298.4951">acts like</text><text fill="#000000" font-family="sans-serif" font-size="13" lengthAdjust="spacing" textLength="22" x="344.0525" y="313.861">0..1</text><text fill="#000000" font-family="sans-serif" font-size="13" lengthAdjust="spacing" textLength="7" x="486.0758" y="324.5508">1</text><!--MD5=[f919d21ae7a75ef5ececc535e09d5009]
link Collaborator to Task--><path codeLine="30" d="M336.19,270.63 C381.31,252.85 448.02,226.58 494.58,208.24 " fill="none" id="Collaborator-Task" style="stroke:#A80036;stroke-width:1.0;"/><polygon fill="#000000" points="375.6521,210.3433,366.1593,210.9238,368.3135,216.3927,375.6521,210.3433" style="stroke:#000000;stroke-width:1.0;"/><text fill="#000000" font-family="sans-serif" font-size="13" lengthAdjust="spacing" textLength="84" x="380" y="217.4951">responsible for</text><text fill="#000000" font-family="sans-serif" font-size="13" lengthAdjust="spacing" textLength="7" x="344.0757" y="282.481">1</text><text fill="#000000" font-family="sans-serif" font-size="13" lengthAdjust="spacing" textLength="20" x="467.0736" y="225.1164">0..*</text><!--MD5=[9ceabb0b679e3a0a007c27ef1371da16]
link MechanographicNumber to Collaborator--><path codeLine="34" d="M152.95,47.16 C161.08,51.75 168.76,57.31 175,64 C228.91,121.77 196.62,162.49 236,231 C241.71,240.93 249.11,250.85 256.43,259.64 " fill="none" id="MechanographicNumber-to-Collaborator" style="stroke:#A80036;stroke-width:1.0;"/><polygon fill="#A80036" points="265.19,269.74,264.2796,262.5866,257.3263,260.6757,258.2367,267.8291,265.19,269.74" style="stroke:#A80036;stroke-width:1.0;"/><!--MD5=[e50ec9f8fa68d8f4dbdd1a93618f42b0]
link FirstName to Collaborator--><path codeLine="35" d="M136.05,116.19 C149.48,121.89 163.68,129.42 175,139 C212.45,170.69 206.73,191.63 236,231 C243.14,240.6 251.3,250.73 258.89,259.83 " fill="none" id="FirstName-to-Collaborator" style="stroke:#A80036;stroke-width:1.0;"/><polygon fill="#A80036" points="267.44,269.96,266.6244,262.7952,259.697,260.7924,260.5126,267.9572,267.44,269.96" style="stroke:#A80036;stroke-width:1.0;"/><!--MD5=[a9b509a1956533ce197b239d197e828f]
link LastName to Collaborator--><path codeLine="36" d="M136.25,194.91 C149,200.55 162.76,207.12 175,214 C200.39,228.27 227.31,246.8 248.16,262 " fill="none" id="LastName-to-Collaborator" style="stroke:#A80036;stroke-width:1.0;"/><polygon fill="#A80036" points="258.78,269.82,256.3218,263.0408,249.1187,262.7025,251.5768,269.4817,258.78,269.82" style="stroke:#A80036;stroke-width:1.0;"/><!--MD5=[462b6207e7e5f48e990f7b5b60ad3937]
link Functions to Collaborator--><path codeLine="37" d="M134.35,260.34 C160.34,265.45 194.06,272.09 223.01,277.79 " fill="none" id="Functions-to-Collaborator" style="stroke:#A80036;stroke-width:1.0;"/><polygon fill="#FFFFFF" points="235.93,280.34,230.8112,275.2608,224.154,278.0323,229.2728,283.1115,235.93,280.34" style="stroke:#A80036;stroke-width:1.0;"/><!--MD5=[b3cea3160954e33916e0f84c2f1046c4]
link PhoneNumber to Collaborator--><path codeLine="38" d="M147.56,316.35 C171.05,311.84 198.52,306.58 222.69,301.95 " fill="none" id="PhoneNumber-to-Collaborator" style="stroke:#A80036;stroke-width:1.0;"/><polygon fill="#A80036" points="235.74,299.44,229.0923,296.6456,223.9561,301.7071,230.6038,304.5015,235.74,299.44" style="stroke:#A80036;stroke-width:1.0;"/><!--MD5=[21ba95b3bd2f21299cd7319540404074]
link BirhtDate to Collaborator--><path codeLine="39" d="M132.76,384.93 C146.43,378.79 161.59,371.51 175,364 C199.85,350.08 226.38,332.32 247.16,317.69 " fill="none" id="BirhtDate-to-Collaborator" style="stroke:#A80036;stroke-width:1.0;"/><polygon fill="#FFFFFF" points="257.76,310.15,250.5524,310.3742,247.9872,317.1136,255.1948,316.8894,257.76,310.15" style="stroke:#A80036;stroke-width:1.0;"/><!--MD5=[29137eb3de7ee480d1d866ca1615286c]
link Email to Collaborator--><path codeLine="40" d="M123.28,466.99 C139.8,460.69 159.75,451.39 175,439 C215.61,406.02 249.04,354.77 268,321.8 " fill="none" id="Email-to-Collaborator" style="stroke:#A80036;stroke-width:1.0;"/><polygon fill="#A80036" points="274.55,310.13,268.1241,313.4023,268.6731,320.5924,275.099,317.3202,274.55,310.13" style="stroke:#A80036;stroke-width:1.0;"/><!--MD5=[33f2581bdde7eaa2024a98480e4f4faa]
link Address to Collaborator--><path codeLine="41" d="M130.01,541.38 C145.43,535.58 162.51,527.05 175,515 C231.5,460.47 263.03,370.9 276.7,322.87 " fill="none" id="Address-to-Collaborator" style="stroke:#A80036;stroke-width:1.0;"/><polygon fill="#FFFFFF" points="280.16,310.21,274.7195,314.943,276.9959,321.7853,282.4364,317.0524,280.16,310.21" style="stroke:#A80036;stroke-width:1.0;"/><!--MD5=[024174ca9574422b645a4b034efda189]
link Code to Task--><path codeLine="43" d="M317.25,126.77 C352.67,135.88 413.12,151.46 465,165 C470.53,166.44 476.27,167.95 482.04,169.46 " fill="none" id="Code-to-Task" style="stroke:#A80036;stroke-width:1.0;"/><polygon fill="#A80036" points="494.61,172.76,489.8222,167.3677,483.0032,169.7132,487.791,175.1055,494.61,172.76" style="stroke:#A80036;stroke-width:1.0;"/><!--MD5=[e0dee75f58b06d953609edfed3ef0305]
link Script to Task--><path codeLine="44" d="M317.51,193.18 C357.5,192.11 428.77,190.21 481.6,188.79 " fill="none" id="Script-to-Task" style="stroke:#A80036;stroke-width:1.0;"/><polygon fill="#A80036" points="494.6,188.44,488.4924,184.6063,482.6045,188.7695,488.7121,192.6033,494.6,188.44" style="stroke:#A80036;stroke-width:1.0;"/><!--MD5=[fa93c921bfb65ee6ff16a6f705f2fb2b]
@startuml
hide methods
left to right direction
skinparam classAttributeIconSize 0






class Collaborator {
}

class User{
-String name
-String email
-String password
}

class Task{
-String description
-Enum taskState
-Enum taskCategory
-Date limit
}




Collaborator"0..1"- -"1" User:acts like >
Collaborator"1"- -"0..*" Task:responsible for >



MechanographicNumber- -* Collaborator
FirstName- -* Collaborator
LastName- -* Collaborator
Functions- -o Collaborator
PhoneNumber - -* Collaborator
BirhtDate- -o Collaborator
Email - -* Collaborator
Address- -o Collaborator

Code- -* Task
Script- -* Task



@enduml

PlantUML version 1.2021.5(Sun Apr 25 12:20:28 BST 2021)
(GPL source distribution)
Java Runtime: OpenJDK Runtime Environment
JVM: Dynamic Code Evolution 64-Bit Server VM
Default Encoding: Cp1252
Language: pt
Country: PT
--></g></svg>